#!OML:ASF I:\Actors\actors\Patient Classification 1\Patient 1\Session 1\Subject1.ASF
:FULLY-SPECIFIED
:DEGREES
324
root -1.31113 15.074 7.26922 22.0803 36.2798 -10.7834
lowerback 22.3047 0.855206 6.48967
upperback -4.12745 2.85392 -1.066
thorax -17.1457 0.506187 -6.01071
lowerneck -7.99278 -1.87173 -1.01605
upperneck 10.6399 -3.02871 5.67529
head 4.60402 -1.17777 1.72474
rclavicle 7.95139e-016 5.88403e-014
rhumerus -4.14216 33.6375 -95.0649
rradius 138.519
rwrist 37.512
rhand 32.1151 -41.4059
rfingers 7.12502
rthumb 55.5978 -59.1031
lclavicle 7.95139e-016 5.88403e-014
lhumerus -14.2643 -29.4818 100.028
lradius 139.676
lwrist -19.7291
lhand 50.3559 0.0102344
lfingers 7.12502
lthumb 70.1829 -4.84712
rfemur -60.5046 5.75189 31.1648
rtibia 70.6708
rfoot -37.248 -38.2283
rtoes 23.95
lfemur -73.6304 -0.795448 2.92979
ltibia 59.7777
lfoot -20.289 -2.08011
ltoes -28.0615
325
root -1.3552 14.8593 7.23163 23.5893 37.0336 -10.5615
lowerback 23.1316 0.772719 6.61989
upperback -4.21881 2.81363 -1.23257
thorax -17.0828 0.491324 -6.0957
lowerneck -7.79401 -1.71169 -0.798964
upperneck 9.27608 -2.76315 5.54843
head 4.14012 -1.0787 1.66778
rclavicle 1.00585e-013 -2.38542e-014
rhumerus -4.09663 33.0946 -95.4515
rradius 138.426
rwrist 37.8644
rhand 34.4172 -39.3237
rfingers 7.12502
rthumb 57.6283 -55.374
lclavicle 1.00585e-013 -2.38542e-014
lhumerus -14.3791 -29.0888 100.001
lradius 139.659
lwrist -19.4459
lhand 50.652 -0.0856677
lfingers 7.12502
lthumb 70.3725 -5.5774
rfemur -63.7118 5.72464 31.0963
rtibia 73.1941
rfoot -37.7372 -38.7654
rtoes 24.1426
lfemur -77.0102 0.148755 2.49245
ltibia 61.6687
lfoot -20.3246 -2.6479
ltoes -27.9159
326
root -1.3901 14.6486 7.19801 25.0289 37.7584 -10.1965
lowerback 23.9416 0.791377 6.69986
upperback -3.965 2.90773 -1.24701
thorax -17.196 0.522418 -6.20866
lowerneck -7.42992 -1.73228 -0.908971
upperneck 7.59959 -2.69087 5.40592
head 3.92812 -1.10326 1.81952
rclavicle -2.8625e-014 1.59028e-014
rhumerus -4.38869 33.1018 -95.6432
rradius 138.365
rwrist 38.1126
rhand 34.444 -39.1169
rfingers 7.12502
rthumb 57.6518 -55.1467
lclavicle -2.8625e-014 1.59028e-014
lhumerus -14.5794 -29.1207 100.328
lradius 139.59
lwrist -18.9886
lhand 50.6471 0.459107
lfingers 7.12502
lthumb 70.3694 -5.02191
rfemur -66.6905 5.32418 31.0322
rtibia 75.619
rfoot -38.2511 -39.111
rtoes 24.1195
lfemur -80.23 0.682565 2.03064
ltibia 63.6308
lfoot -20.4161 -2.84741
ltoes -28.2822
327
root -1.42062 14.4516 7.17461 26.2523 38.4332 -9.67477
lowerback 25.2033 0.886389 7.21915
upperback -3.85229 3.23058 -1.57644
thorax -17.6423 0.562143 -7.03466
lowerneck -6.78142 -2.08603 -1.15725
upperneck 6.41361 -3.11079 5.7663
head 3.41644 -1.33324 1.95358
rclavicle 2.24627e-014 1.74931e-014
rhumerus -5.21322 32.2044 -95.9354
rradius 138.429
rwrist 38.2954
rhand 35.4102 -39.3429
rfingers 7.12502
rthumb 58.494 -54.6126
lclavicle 2.24627e-014 1.74931e-014
lhumerus -15.2902 -29.9976 100.817
lradius 139.508
lwrist -18.3095
lhand 50.7917 1.09056
lfingers 7.12502
lthumb 70.4611 -4.70473
rfemur -69.1869 4.59973 31.0239
rtibia 77.8544
rfoot -38.7278 -39.4177
rtoes 23.6008
lfemur -82.9806 0.866754 1.49421
ltibia 65.4994
lfoot -20.5354 -2.89702
ltoes -28.7086
328
root -1.45042 14.2721 7.15482 27.0457 39.1174 -9.24136
lowerback 26.713 0.973835 7.52234
upperback -3.59828 3.56534 -1.51849
thorax -18.0543 0.656238 -7.3175
lowerneck -6.23417 -2.37897 -1.99891
upperneck 5.25525 -3.3967 6.12353
head 2.95768 -1.511 2.20546
rclavicle 6.40087e-014 -6.40087e-014
rhumerus -5.90814 31.5072 -95.6386
rradius 138.532
rwrist 38.2847
rhand 37.4188 -39.6585
rfingers 7.12502
rthumb 60.2232 -53.2024
lclavicle 6.40087e-014 -6.40087e-014
lhumerus -15.9958 -30.7968 101.737
lradius 139.39
lwrist -17.8861
lhand 50.6965 1.40556
lfingers 7.12502
lthumb 70.4008 -4.18255
rfemur -71.1215 3.79492 31.1858
rtibia 79.861
rfoot -39.2909 -39.7567
rtoes 22.6737
lfemur -85.2023 0.920667 0.979132
ltibia 67.2364
lfoot -20.6101 -3.08639
ltoes -28.7091
329
root -1.47919 14.1064 7.14138 27.5411 39.6896 -8.93887
lowerback 28.6178 0.639048 7.79186
upperback -3.42578 3.32798 -1.71053
thorax -18.8438 0.460574 -7.66802
lowerneck -6.29783 -2.22808 -1.8956
upperneck 4.7444 -3.19493 6.3934
head 2.79223 -1.40664 2.28294
rclavicle -8.94531e-015 3.47873e-014
rhumerus -6.56212 31.4645 -96.5512
rradius 138.429
rwrist 38.2311
rhand 38.5136 -39.6508
rfingers 7.12502
rthumb 61.152 -52.1621
lclavicle -8.94531e-015 3.47873e-014
lhumerus -16.8336 -31.0506 101.406
lradius 139.491
lwrist -17.5617
lhand 50.7016 1.73326
lfingers 7.12502
lthumb 70.404 -3.86598
rfemur -72.6856 3.1299 31.4308
rtibia 81.6543
rfoot -39.8357 -39.7476
rtoes 21.6003
lfemur -87.022 0.99867 0.558069
ltibia 68.8687
lfoot -20.7189 -3.25168
ltoes -28.4014
330
root -1.50379 13.9564 7.14071 28.1641 39.9779 -8.39391
lowerback 29.6694 0.322176 6.94523
upperback -2.74847 2.63143 -1.8345
thorax -18.6866 0.280557 -7.04876
lowerneck -6.75702 -1.74763 -0.407401
upperneck 3.76974 -2.59998 5.78175
head 2.47542 -1.11425 1.8274
rclavicle 3.08116e-014 5.54609e-014
rhumerus -5.68408 32.1758 -97.0852
rradius 138.048
rwrist 37.7702
rhand 38.3026 -39.8146
rfingers 7.12502
rthumb 60.9738 -52.5303
lclavicle 3.08116e-014 5.54609e-014
lhumerus -16.269 -30.3197 99.9226
lradius 139.568
lwrist -17.1785
lhand 51.4231 2.23573
lfingers 7.12502
lthumb 70.8542 -4.96733
rfemur -74.1169 2.41219 31.4969
rtibia 83.3249
rfoot -40.2927 -39.7765
rtoes 20.6301
lfemur -88.5467 1.02838 -0.0267558
ltibia 70.3542
lfoot -20.9725 -3.32642
ltoes -27.409
331
root -1.525 13.8264 7.14922 28.6531 40.0735 -7.80992
lowerback 30.8712 0.404191 6.36757
upperback -2.27505 2.57422 -1.93663
thorax -18.7169 0.321996 -6.8342
lowerneck -6.8631 -1.7173 -0.26625
upperneck 3.11026 -2.54234 5.83924
head 2.27176 -1.09313 1.81905
rclavicle 2.08724e-014 -4.96962e-015
rhumerus -5.41405 32.0149 -96.9393
rradius 137.804
rwrist 37.4557
rhand 37.6732 -39.8818
rfingers 7.12502
rthumb 60.4399 -53.1918
lclavicle 2.08724e-014 -4.96962e-015
lhumerus -16.048 -30.1799 99.8192
lradius 139.395
lwrist -16.9622
lhand 52.4435 2.59709
lfingers 7.12502
lthumb 71.4627 -7.00697
rfemur -75.2129 1.70267 31.5583
rtibia 84.8462
rfoot -40.7699 -39.7768
rtoes 19.929
lfemur -89.6647 1.04372 -0.660999
ltibia 71.6738
lfoot -21.1776 -3.2603
ltoes -26.7076
332
root -1.53989 13.7134 7.16309 28.873 39.9901 -7.50709
lowerback 31.9027 0.974578 5.67823
upperback -1.97287 3.19411 -1.52538
thorax -18.7887 0.679218 -6.27316
lowerneck -6.09151 -1.99942 -1.18099
upperneck 1.93874 -2.77666 5.67462
head 1.76953 -1.26032 1.91497
rclavicle -3.24516e-014 1.40143e-014
rhumerus -6.01968 31.4868 -95.9409
rradius 137.715
rwrist 37.2073
rhand 37.5708 -39.5571
rfingers 7.12502
rthumb 60.3527 -52.9617
lclavicle -3.24516e-014 1.40143e-014
lhumerus -16.4405 -30.6195 101.147
lradius 139.151
lwrist -17.1646
lhand 52.8638 2.91305
lfingers 7.12502
lthumb 71.703 -7.72647
rfemur -75.9946 1.32834 31.7116
rtibia 86.105
rfoot -41.1236 -39.8217
rtoes 19.1179
lfemur -90.4762 1.24252 -1.11705
ltibia 72.8468
lfoot -21.1329 -2.94194
ltoes -27.1341
333
root -1.54356 13.6115 7.18174 29.2047 39.6278 -7.36679
lowerback 32.5044 0.950672 5.04659
upperback -1.64381 2.86453 -1.92134
thorax -18.723 0.592495 -6.23468
lowerneck -6.15982 -1.56782 0.331442
upperneck 1.31797 -2.26415 5.17872
head 1.5245 -1.01241 1.50201
rclavicle -9.50191e-014 6.40087e-014
rhumerus -6.06316 31.877 -96.8942
rradius 137.313
rwrist 36.8529
rhand 37.0047 -39.2277
rfingers 7.12502
rthumb 59.8693 -53.1445
lclavicle -9.50191e-014 6.40087e-014
lhumerus -16.4292 -30.6043 99.4514
lradius 139.302
lwrist -17.0233
lhand 52.7109 3.64511
lfingers 7.12502
lthumb 71.6163 -6.61461
rfemur -76.8644 1.39781 31.7566
rtibia 87.1966
rfoot -41.2868 -39.9263
rtoes 18.2641
lfemur -91.2857 1.72502 -1.51014
ltibia 73.8985
lfoot -21.0902 -2.42028
ltoes -27.1192
334
root -1.5387 13.5329 7.2006 29.4876 39.3381 -7.21652
lowerback 32.8882 1.07749 4.64464
upperback -1.41809 2.8758 -1.97341
thorax -18.6346 0.643647 -6.0782
lowerneck -5.98362 -1.37085 0.184381
upperneck 0.903975 -1.96703 5.2091
head 1.3553 -0.874533 1.54591
rclavicle 6.91771e-014 1.54058e-014
rhumerus -6.22038 32.1666 -96.8969
rradius 137.139
rwrist 37.0969
rhand 37.5754 -39.9379
rfingers 7.12502
rthumb 60.3567 -53.3383
lclavicle 6.91771e-014 1.54058e-014
lhumerus -16.5702 -30.0216 99.8368
lradius 138.935
lwrist -17.1772
lhand 53.808 3.71441
lfingers 7.12502
lthumb 72.2194 -9.35274
rfemur -77.4676 1.48121 31.701
rtibia 88.0111
rfoot -41.4649 -39.992
rtoes 17.6936
lfemur -91.9294 2.00282 -1.82727
ltibia 74.7733
lfoot -21.1337 -1.86924
ltoes -26.2704
335
root -1.53007 13.492 7.21812 29.5122 39.4201 -6.87697
lowerback 33.6839 1.09094 4.39344
upperback -1.19012 2.81623 -2.02019
thorax -18.7308 0.64147 -5.98234
lowerneck -6.042 -1.33599 0.296493
upperneck 0.560976 -1.90843 5.01532
head 1.24912 -0.854149 1.46472
rclavicle -7.65321e-015 6.94752e-014
rhumerus -6.20231 32.1091 -96.9746
rradius 136.773
rwrist 36.8646
rhand 37.312 -40.1329
rfingers 7.12502
rthumb 60.132 -53.7738
lclavicle -7.65321e-015 6.94752e-014
lhumerus -16.4136 -29.8125 99.8747
lradius 138.623
lwrist -17.1656
lhand 54.3271 3.62122
lfingers 7.12502
lthumb 72.4886 -10.8414
rfemur -77.4096 1.14213 31.5499
rtibia 88.4107
rfoot -41.7135 -39.9425
rtoes 17.265
lfemur -92.0987 1.56851 -1.9903
ltibia 75.3354
lfoot -21.1907 -1.43652
ltoes -25.7213
336
root -1.52285 13.4701 7.24266 29.6496 39.4111 -6.73406
lowerback 33.8539 1.05768 4.12209
upperback -1.06735 2.65877 -2.07896
thorax -18.6838 0.604745 -5.82806
lowerneck -5.60445 -1.25886 0.782412
upperneck -0.146028 -1.78673 4.41996
head 0.929854 -0.821388 1.1946
rclavicle 6.93758e-014 3.40916e-014
rhumerus -6.18544 32.0664 -97.4199
rradius 136.578
rwrist 37.1335
rhand 38.4225 -40.3191
rfingers 7.12502
rthumb 61.0751 -52.919
lclavicle 6.93758e-014 3.40916e-014
lhumerus -16.1948 -29.4615 99.5343
lradius 138.356
lwrist -17.1948
lhand 54.4051 3.71912
lfingers 7.12502
lthumb 72.5281 -10.9568
rfemur -77.4299 1.22119 31.4413
rtibia 88.6188
rfoot -41.8967 -39.8591
rtoes 16.9304
lfemur -92.2831 1.43763 -2.02636
ltibia 75.6713
lfoot -21.307 -1.06656
ltoes -25.8059
